<?xml version="1.0" encoding="UTF-8" standalone="no"?>
<!-- Created with Inkscape (http://www.inkscape.org/) -->

<svg
   xmlns:dc="http://purl.org/dc/elements/1.1/"
   xmlns:cc="http://creativecommons.org/ns#"
   xmlns:rdf="http://www.w3.org/1999/02/22-rdf-syntax-ns#"
   xmlns:svg="http://www.w3.org/2000/svg"
   xmlns="http://www.w3.org/2000/svg"
   xmlns:sodipodi="http://sodipodi.sourceforge.net/DTD/sodipodi-0.dtd"
   xmlns:inkscape="http://www.inkscape.org/namespaces/inkscape"
   width="96"
   height="96"
   id="svg6517"
   version="1.1"
   inkscape:version="0.91 r13725"
   sodipodi:docname="icon.svg">
  <defs
     id="defs6519">
    <linearGradient
       id="Background">
      <stop
         id="stop4178"
         offset="0"
         style="stop-color:#b8b8b8;stop-opacity:1" />
      <stop
         id="stop4180"
         offset="1"
         style="stop-color:#c9c9c9;stop-opacity:1" />
    </linearGradient>
    <filter
       style="color-interpolation-filters:sRGB;"
       inkscape:label="Inner Shadow"
       id="filter1121">
      <feFlood
         flood-opacity="0.59999999999999998"
         flood-color="rgb(0,0,0)"
         result="flood"
         id="feFlood1123" />
      <feComposite
         in="flood"
         in2="SourceGraphic"
         operator="out"
         result="composite1"
         id="feComposite1125" />
      <feGaussianBlur
         in="composite1"
         stdDeviation="1"
         result="blur"
         id="feGaussianBlur1127" />
      <feOffset
         dx="0"
         dy="2"
         result="offset"
         id="feOffset1129" />
      <feComposite
         in="offset"
         in2="SourceGraphic"
         operator="atop"
         result="composite2"
         id="feComposite1131" />
    </filter>
    <filter
       style="color-interpolation-filters:sRGB;"
       inkscape:label="Drop Shadow"
       id="filter950">
      <feFlood
         flood-opacity="0.25"
         flood-color="rgb(0,0,0)"
         result="flood"
         id="feFlood952" />
      <feComposite
         in="flood"
         in2="SourceGraphic"
         operator="in"
         result="composite1"
         id="feComposite954" />
      <feGaussianBlur
         in="composite1"
         stdDeviation="1"
         result="blur"
         id="feGaussianBlur956" />
      <feOffset
         dx="0"
         dy="1"
         result="offset"
         id="feOffset958" />
      <feComposite
         in="SourceGraphic"
         in2="offset"
         operator="over"
         result="composite2"
         id="feComposite960" />
    </filter>
    <clipPath
       clipPathUnits="userSpaceOnUse"
       id="clipPath873">
      <g
         transform="matrix(0,-0.66666667,0.66604479,0,-258.25992,677.00001)"
         id="g875"
         inkscape:label="Layer 1"
         style="fill:#ff00ff;fill-opacity:1;stroke:none;display:inline">
        <path
           style="fill:#ff00ff;fill-opacity:1;stroke:none;display:inline"
           d="m 46.702703,898.22775 50.594594,0 C 138.16216,898.22775 144,904.06497 144,944.92583 l 0,50.73846 c 0,40.86071 -5.83784,46.69791 -46.702703,46.69791 l -50.594594,0 C 5.8378378,1042.3622 0,1036.525 0,995.66429 L 0,944.92583 C 0,904.06497 5.8378378,898.22775 46.702703,898.22775 Z"
           id="path877"
           inkscape:connector-curvature="0"
           sodipodi:nodetypes="sssssssss" />
      </g>
    </clipPath>
    <filter
       inkscape:collect="always"
       id="filter891"
       inkscape:label="Badge Shadow">
      <feGaussianBlur
         inkscape:collect="always"
         stdDeviation="0.71999962"
         id="feGaussianBlur893" />
    </filter>
  </defs>
  <sodipodi:namedview
     id="base"
     pagecolor="#ffffff"
     bordercolor="#666666"
     borderopacity="1.0"
     inkscape:pageopacity="0.0"
     inkscape:pageshadow="2"
     inkscape:zoom="4.0745362"
     inkscape:cx="48.413329"
     inkscape:cy="49.018169"
     inkscape:document-units="px"
     inkscape:current-layer="layer1"
     showgrid="true"
     fit-margin-top="0"
     fit-margin-left="0"
     fit-margin-right="0"
     fit-margin-bottom="0"
     inkscape:window-width="1920"
     inkscape:window-height="1025"
     inkscape:window-x="0"
     inkscape:window-y="27"
     inkscape:window-maximized="1"
     showborder="true"
     showguides="true"
     inkscape:guide-bbox="true"
     inkscape:showpageshadow="false">
    <inkscape:grid
       type="xygrid"
       id="grid821" />
    <sodipodi:guide
       orientation="1,0"
       position="16,48"
       id="guide823" />
    <sodipodi:guide
       orientation="0,1"
       position="64,80"
       id="guide825" />
    <sodipodi:guide
       orientation="1,0"
       position="80,40"
       id="guide827" />
    <sodipodi:guide
       orientation="0,1"
       position="64,16"
       id="guide829" />
  </sodipodi:namedview>
  <metadata
     id="metadata6522">
    <rdf:RDF>
      <cc:Work
         rdf:about="">
        <dc:format>image/svg+xml</dc:format>
        <dc:type
           rdf:resource="http://purl.org/dc/dcmitype/StillImage" />
        <dc:title></dc:title>
      </cc:Work>
    </rdf:RDF>
  </metadata>
  <g
     inkscape:label="BACKGROUND"
     inkscape:groupmode="layer"
     id="layer1"
     transform="translate(268,-635.29076)"
     style="display:inline">
    <path
       style="fill:#ebebeb;fill-opacity:1;stroke:none;display:inline;filter:url(#filter1121)"
       d="m -268,700.15563 0,-33.72973 c 0,-27.24324 3.88785,-31.13513 31.10302,-31.13513 l 33.79408,0 c 27.21507,0 31.1029,3.89189 31.1029,31.13513 l 0,33.72973 c 0,27.24325 -3.88783,31.13514 -31.1029,31.13514 l -33.79408,0 C -264.11215,731.29077 -268,727.39888 -268,700.15563 Z"
       id="path6455"
       inkscape:connector-curvature="0"
       sodipodi:nodetypes="sssssssss" />
  </g>
  <g
     inkscape:groupmode="layer"
     id="layer3"
     inkscape:label="PLACE YOUR PICTOGRAM HERE"
     style="display:inline">
    <g
       style="display:inline"
       transform="matrix(0.30759127,0,0,0.30759127,8.28218,8.97257)"
       id="g3732">
      <path
         style="fill:#a3cfe8"
         d="M 95,165.62616 C 84.317392,162.68522 76.316695,156.3432 71.320441,146.85577 68.731857,141.94027 68.5,140.61329 68.5,130.71353 c 0,-11.83269 0.397793,-12.66977 6.034392,-12.69822 C 78.926707,117.99315 81,121.97863 81,130.44413 c 0,9.5666 3.34886,15.50194 11.662711,20.67036 3.651393,2.26995 4.798754,2.40131 23.683989,2.71173 l 19.8467,0.32623 -0.71218,2.17377 c -0.91082,2.78009 -0.90418,5.58369 0.0199,8.42378 l 0.73211,2.25 -18.36663,-0.0675 C 106.56201,166.89096 97.76974,166.38867 95,165.62616 Z m 46.00868,-0.11571 c -1.77687,-2.14099 -1.82625,-7.82041 -0.0862,-9.917 1.07681,-1.29747 3.57513,-1.59374 13.45,-1.595 9.54779,-0.001 12.86912,-0.37349 15.61365,-1.75 9.3963,-4.71272 7.35301,-19.21115 -2.93942,-20.85698 -2.07398,-0.33164 -4.19534,-0.89289 -4.71413,-1.24723 -0.51879,-0.35433 -1.44954,-3.43526 -2.06833,-6.84652 -1.37797,-7.59639 -3.48916,-12.20669 -7.30276,-15.94738 -3.66382,-3.59378 -3.6595,-4.21104 0.0385,-5.50018 2.54055,-0.88564 3,-1.56686 3,-4.447985 0,-4.258462 1.35388,-4.297632 5.25974,-0.152175 4.55275,4.83203 8.57589,11.55276 10.42257,17.41111 1.15326,3.65858 2.26012,5.35908 3.72889,5.72883 3.21482,0.8093 9.54053,7.29049 11.64977,11.9361 2.26213,4.98232 2.53846,14.30356 0.56413,19.02881 -1.97355,4.72336 -7.28419,10.42159 -12.03042,12.90844 -3.50369,1.8358 -6.19345,2.20312 -18.636,2.54499 -12.76506,0.35072 -14.7134,0.19219 -15.95,-1.29783 z M 36.760565,161.75 c -3.478655,-4.56459 -7.187084,-12.21027 -9.336932,-19.25 -2.778434,-9.09804 -2.583706,-24.94034 0.417306,-33.95043 3.497444,-10.500559 9.898641,-21.56636 12.457102,-21.534693 0.661077,0.0082 2.925911,1.473635 5.032964,3.256562 l 3.831004,3.241685 -2.568452,5.113673 C 42.599304,106.57918 40.65102,115.46967 40.594928,126 c -0.0579,10.86969 1.439444,17.99787 5.535634,26.35262 1.578191,3.21895 2.85983,6.14395 2.848087,6.5 C 48.949775,159.72808 41.428955,165 40.208913,165 c -0.534344,0 -2.086101,-1.4625 -3.448348,-3.25 z m 175.995035,-0.0376 -3.7444,-3.21245 1.79249,-3 c 8.93434,-14.95294 9.53034,-38.50427 1.41338,-55.849827 l -3.07866,-6.578941 4.1278,-3.035616 C 215.5365,88.366027 217.71535,87 218.10811,87 c 1.50502,0 6.33619,6.757331 8.97827,12.55785 7.79191,17.10669 7.87368,37.40315 0.21328,52.94215 -2.91602,5.91511 -7.82715,12.49548 -9.29966,12.46052 -0.825,-0.0196 -3.18498,-1.48122 -5.2444,-3.24807 z M 81.482645,115.96644 c -1.483807,-2.86937 -1.949857,-3.10137 -5.058516,-2.51818 -4.663007,0.87478 -4.493442,-0.95188 0.628511,-6.77072 5.256509,-5.97171 14.327595,-10.460488 22.924736,-11.34418 4.557714,-0.468483 7.786604,-1.496091 10.894994,-3.467375 10.33444,-6.553906 24.98246,-8.287165 35.62763,-4.215718 4.82222,1.84435 5,2.051462 5,5.824988 0,3.32368 -0.46902,4.186565 -3.11582,5.732379 -2.93452,1.713856 -3.47765,1.727036 -9.3345,0.226582 -5.19732,-1.331492 -7.06708,-1.394156 -11.38418,-0.381538 -6.35168,1.489842 -8.08332,2.337822 -13.18203,6.455152 -3.63495,2.93531 -4.49954,3.19704 -9.10062,2.75494 -6.189167,-0.59471 -12.218344,1.78693 -18.196739,7.18806 l -4.06908,3.67616 -1.634386,-3.16055 z"
         id="path3746"
         inkscape:connector-curvature="0" />
      <path
         style="fill:#9a9a9c"
         d="m 93.286039,164.54925 c -16.494387,-5.15489 -26.958648,-21.00658 -24.875196,-37.68196 0.843223,-6.74892 1.329136,-7.48226 5.337762,-8.05574 4.602358,-0.65842 6.634722,2.66079 6.356138,10.38072 -0.355642,9.8553 5.007342,19.02839 13.395257,22.91187 3.449975,1.59728 6.65053,1.85496 23.27568,1.8739 l 19.27568,0.022 -1.5223,2.9438 c -1.13702,2.19876 -1.27006,3.60722 -0.52568,5.5651 0.54814,1.44171 0.99662,2.817 0.99662,3.0562 0,1.13237 -37.784447,0.21221 -41.713961,-1.01585 z M 140.3757,163.25 c -0.75749,-2.06167 -0.6343,-3.56348 0.49217,-6 l 1.50255,-3.25 12.9105,0 c 14.6294,0 17.5288,-0.97189 20.29597,-6.80328 3.45454,-7.27989 -1.32251,-15.43619 -9.78395,-16.70506 l -4.53221,-0.67965 -0.51854,-5.71858 c -0.55357,-6.10485 -4.15117,-14.35103 -7.6341,-17.49842 -2.70447,-2.44391 -2.6528,-3.02579 0.39191,-4.41306 1.58875,-0.72388 2.50558,-1.96702 2.51531,-3.410511 0.008,-1.249292 0.39216,-2.865775 0.85274,-3.592185 C 158.67512,92.329247 172,111.55317 172,117.01025 c 0,0.94756 2.19487,3.0552 4.99312,4.79469 16.07824,9.99478 15.53196,32.74917 -0.99499,41.44506 -5.0138,2.63808 -5.82451,2.75 -19.91928,2.75 l -14.69277,0 -1.01038,-2.75 z M 35.40716,159.29417 c -2.083023,-3.13821 -5.109308,-9.54119 -6.725077,-14.22886 -2.485242,-7.21018 -2.938617,-10.06664 -2.943307,-18.54417 -0.0036,-6.59373 0.591734,-12.07325 1.74079,-16.02114 2.125307,-7.30206 7.833992,-18.506493 10.893586,-21.380833 l 2.245692,-2.109718 4.114129,3.025565 4.114129,3.025564 -2.940589,6.48533 c -7.687874,16.955242 -7.684823,36.645922 0.0082,53.085582 l 2.95122,6.30662 -3.826883,3.03094 C 42.934289,163.63607 40.758205,165 40.203333,165 c -0.554872,0 -2.71315,-2.56762 -4.796173,-5.70583 z m 178.33231,2.91881 c -4.12643,-2.97696 -4.12127,-2.77305 -0.30142,-11.89827 C 216.73845,142.43037 218,135.70645 218,126 c 0,-9.70412 -1.26117,-16.4284 -4.56034,-24.31471 -1.42316,-3.401907 -2.66678,-6.795138 -2.76361,-7.540509 -0.0968,-0.74537 1.55376,-2.77037 3.66797,-4.5 L 218.18803,86.5 l 2.46357,3 c 10.21069,12.43401 14.79345,33.98475 10.72523,50.43611 -2.37412,9.60065 -10.56942,25.165 -13.17772,25.02687 -0.38451,-0.0204 -2.39135,-1.25787 -4.45964,-2.75 z M 81.841186,115.55079 c -0.878315,-1.9277 -1.99166,-2.51327 -5.228562,-2.75 L 72.5,112.5 77.225927,107.42203 C 83.456988,100.72681 89.946931,97.312559 99.091117,95.919125 103.166,95.298175 107.175,94.376154 108,93.87019 c 0.825,-0.505965 4.40457,-2.344245 7.95461,-4.085068 8.22915,-4.035307 19.81365,-4.987772 28.27907,-2.325071 7.55962,2.37779 7.79351,2.597566 7.12811,6.697941 C 150.57502,99.006294 146.1878,101.20891 141,99.36016 132.99683,96.508113 122.06502,98.684599 115.29736,104.47747 111.53712,107.6961 110.64067,108 104.90676,108 97.846719,108 92.517648,110.09663 87.188282,114.97101 85.366837,116.63695 83.669689,118 83.416843,118 c -0.252846,0 -0.961892,-1.10215 -1.575657,-2.44921 z"
         id="path3744"
         inkscape:connector-curvature="0" />
      <path
         style="fill:#50a1d2"
         d="m 93.286039,164.54925 c -16.494387,-5.15489 -26.958648,-21.00658 -24.875196,-37.68196 0.843223,-6.74892 1.329136,-7.48226 5.337762,-8.05574 4.602358,-0.65842 6.634722,2.66079 6.356138,10.38072 -0.355642,9.8553 5.007342,19.02839 13.395257,22.91187 3.449975,1.59728 6.65053,1.85496 23.27568,1.8739 l 19.27568,0.022 -1.5223,2.9438 c -1.13702,2.19876 -1.27006,3.60722 -0.52568,5.5651 0.54814,1.44171 0.99662,2.817 0.99662,3.0562 0,1.13237 -37.784447,0.21221 -41.713961,-1.01585 z M 140.3757,163.25 c -0.75749,-2.06167 -0.6343,-3.56348 0.49217,-6 l 1.50255,-3.25 12.9105,0 c 14.6294,0 17.5288,-0.97189 20.29597,-6.80328 3.45454,-7.27989 -1.32251,-15.43619 -9.78395,-16.70506 l -4.53221,-0.67965 -0.51854,-5.71858 c -0.55357,-6.10485 -4.15117,-14.35103 -7.6341,-17.49842 -2.70447,-2.44391 -2.6528,-3.02579 0.39191,-4.41306 1.58875,-0.72388 2.50558,-1.96702 2.51531,-3.410511 0.008,-1.249292 0.39216,-2.865775 0.85274,-3.592185 C 158.67512,92.329247 172,111.55317 172,117.01025 c 0,0.94756 2.19487,3.0552 4.99312,4.79469 16.07824,9.99478 15.53196,32.74917 -0.99499,41.44506 -5.0138,2.63808 -5.82451,2.75 -19.91928,2.75 l -14.69277,0 -1.01038,-2.75 z M 36.924699,160.79198 C 33.485946,156.10457 30.687068,150.24942 28.180767,142.5 c -2.22154,-6.86895 -2.214797,-26.11727 0.01161,-33.13024 2.21057,-6.96308 6.348289,-15.18965 9.611074,-19.108624 L 40.5,87.022271 l 3.875471,3.282759 3.875472,3.282758 -2.18708,4.287031 c -7.653476,15.002051 -8.071995,38.329351 -0.968739,53.995241 3.168854,6.98876 3.078371,7.44609 -2.21963,11.2186 l -2.802135,1.99529 -3.14866,-4.29197 z m 177.289621,1.13424 -4.17969,-3.07377 1.95557,-3.83324 c 5.55817,-10.89491 7.78283,-24.62144 6.0729,-37.4708 -0.61859,-4.64838 -1.81396,-10.16088 -2.65638,-12.25 -1.54072,-3.82085 -4.3711,-10.259911 -5.02182,-11.424556 -0.6119,-1.095168 7.44846,-6.09488 8.63936,-5.35886 2.42142,1.496519 8.05598,11.676956 10.60291,19.157176 3.82818,11.24317 3.81121,25.44418 -0.044,36.82783 -2.07525,6.12777 -9.78971,20.5 -11.00362,20.5 -0.10204,0 -2.06639,-1.3832 -4.36522,-3.07378 z M 81.841186,115.55079 c -0.878315,-1.9277 -1.99166,-2.51327 -5.228562,-2.75 L 72.5,112.5 77.225927,107.42203 C 83.456988,100.72681 89.946931,97.312559 99.091117,95.919125 103.166,95.298175 107.175,94.376154 108,93.87019 c 0.825,-0.505965 4.40457,-2.344245 7.95461,-4.085068 8.22915,-4.035307 19.81365,-4.987772 28.27907,-2.325071 7.55962,2.37779 7.79351,2.597566 7.12811,6.697941 C 150.57502,99.006294 146.1878,101.20891 141,99.36016 132.99683,96.508113 122.06502,98.684599 115.29736,104.47747 111.53712,107.6961 110.64067,108 104.90676,108 97.846719,108 92.517648,110.09663 87.188282,114.97101 85.366837,116.63695 83.669689,118 83.416843,118 c -0.252846,0 -0.961892,-1.10215 -1.575657,-2.44921 z"
         id="path3742"
         inkscape:connector-curvature="0" />
      <path
         style="fill:#258bc8"
         d="m 140.94241,163.34852 c -0.60534,-1.59216 -0.6633,-3.68963 -0.14507,-5.25 0.8603,-2.5903 0.90545,-2.60011 14.28284,-3.09996 7.93908,-0.29664 14.30706,-1.00877 15.59227,-1.74367 10.44037,-5.96999 7.38458,-21.04866 -4.67245,-23.05598 l -4.5,-0.74919 -0.58702,-5.97486 c -0.62455,-6.35693 -3.09323,-12.09225 -7.29978,-16.95905 l -2.57934,-2.98419 2.20484,-0.81562 c 2.73303,-1.01102 3.71477,-2.49335 3.78569,-5.716 0.0511,-2.322172 0.38375,-2.144343 4.67651,2.5 4.32664,4.681 10.2991,15.64731 10.2991,18.91066 0,0.80001 0.94975,1.756 2.11054,2.12443 3.25146,1.03197 9.8171,7.40275 11.96188,11.60686 2.54215,4.98304 2.56222,14.86412 0.0414,20.41386 -2.26808,4.99343 -8.79666,10.73297 -13.97231,12.28363 C 170.01108,165.47775 162.34653,166 155.10923,166 l -13.15873,0 -1.00809,-2.65148 z M 36.924699,160.79198 C 33.485946,156.10457 30.687068,150.24942 28.180767,142.5 c -2.22154,-6.86895 -2.214797,-26.11727 0.01161,-33.13024 2.21057,-6.96308 6.348289,-15.18965 9.611074,-19.108624 L 40.5,87.022271 l 3.875471,3.282759 3.875472,3.282758 -2.18708,4.287031 c -7.653476,15.002051 -8.071995,38.329351 -0.968739,53.995241 3.168854,6.98876 3.078371,7.44609 -2.21963,11.2186 l -2.802135,1.99529 -3.14866,-4.29197 z m 177.289621,1.13424 -4.17969,-3.07377 1.95557,-3.83324 c 5.55817,-10.89491 7.78283,-24.62144 6.0729,-37.4708 -0.61859,-4.64838 -1.81396,-10.16088 -2.65638,-12.25 -1.54072,-3.82085 -4.3711,-10.259911 -5.02182,-11.424556 -0.6119,-1.095168 7.44846,-6.09488 8.63936,-5.35886 2.42142,1.496519 8.05598,11.676956 10.60291,19.157176 3.82818,11.24317 3.81121,25.44418 -0.044,36.82783 -2.07525,6.12777 -9.78971,20.5 -11.00362,20.5 -0.10204,0 -2.06639,-1.3832 -4.36522,-3.07378 z M 81.664567,115.0093 c -1.516672,-2.56752 -2.095101,-2.81369 -5.364599,-2.28313 l -3.66463,0.59469 2.22168,-3.12006 C 80.37626,102.44974 90.120126,97.000633 99.857357,96.219746 105.13094,95.796826 107.53051,95.01192 111.5,92.411404 c 10.08936,-6.609802 24.47284,-8.157994 35.30015,-3.799597 4.05392,1.631857 4.28296,1.935471 4,5.302479 -0.41543,4.943233 -3.85308,6.604794 -10.30411,4.980399 -9.07108,-2.284124 -18.26402,-0.195093 -26.41897,6.003525 -2.78485,2.11679 -4.55576,2.61322 -9.5,2.66311 -6.674981,0.0673 -12.069467,2.29808 -17.866999,7.38838 l -3.345536,2.93742 -1.699968,-2.87782 z"
         id="path3740"
         inkscape:connector-curvature="0" />
      <path
         style="fill:#6c6d71"
         d="M 36.924699,160.79198 C 33.485946,156.10457 30.687068,150.24942 28.180767,142.5 c -2.22154,-6.86895 -2.214797,-26.11727 0.01161,-33.13024 2.21057,-6.96308 6.348289,-15.18965 9.611074,-19.108624 L 40.5,87.022271 l 3.875471,3.282759 3.875472,3.282758 -2.18708,4.287031 c -7.653476,15.002051 -8.071995,38.329351 -0.968739,53.995241 3.168854,6.98876 3.078371,7.44609 -2.21963,11.2186 l -2.802135,1.99529 -3.14866,-4.29197 z m 177.289621,1.13424 -4.17969,-3.07377 1.95557,-3.83324 c 5.55817,-10.89491 7.78283,-24.62144 6.0729,-37.4708 -0.61859,-4.64838 -1.81396,-10.16088 -2.65638,-12.25 -1.54072,-3.82085 -4.3711,-10.259911 -5.02182,-11.424556 -0.6119,-1.095168 7.44846,-6.09488 8.63936,-5.35886 2.42142,1.496519 8.05598,11.676956 10.60291,19.157176 3.82818,11.24317 3.81121,25.44418 -0.044,36.82783 -2.07525,6.12777 -9.78971,20.5 -11.00362,20.5 -0.10204,0 -2.06639,-1.3832 -4.36522,-3.07378 z M 81.778822,114.41391 c -0.987352,-2.167 -1.713119,-2.52365 -4.478561,-2.2008 C 75.485117,112.42502 74,112.28006 74,111.89098 c 0,-0.38909 2.038348,-2.80473 4.529662,-5.36811 5.687016,-5.85151 13.385461,-9.421936 22.389748,-10.384041 4.19603,-0.448345 7.72119,-1.408591 8.81929,-2.402352 1.0061,-0.910509 4.51398,-2.848867 7.79529,-4.307463 11.5167,-5.119364 33.48865,-2.808232 33.4507,3.51853 -0.03,5.002939 -4.29101,7.838526 -9.20479,6.125573 -1.69309,-0.590214 -6.0487,-1.063234 -9.67912,-1.051155 -7.46196,0.02483 -12.78325,2.004318 -18.21979,6.777668 -3.02474,2.65576 -4.03125,2.9899 -7.5746,2.51464 -5.45614,-0.73182 -12.97717,1.85611 -18.074646,6.21936 -2.22732,1.9065 -4.325286,3.46637 -4.662147,3.46637 -0.336861,0 -1.14271,-1.16374 -1.790775,-2.58609 z"
         id="path3738"
         inkscape:connector-curvature="0" />
      <path
         style="fill:#0076c2"
         d="m 81.778822,114.41391 c -0.987352,-2.167 -1.713119,-2.52365 -4.478561,-2.2008 C 75.485117,112.42502 74,112.28006 74,111.89098 c 0,-0.38909 2.038348,-2.80473 4.529662,-5.36811 5.687016,-5.85151 13.385461,-9.421936 22.389748,-10.384041 4.19603,-0.448345 7.72119,-1.408591 8.81929,-2.402352 1.0061,-0.910509 4.51398,-2.848867 7.79529,-4.307463 11.5167,-5.119364 33.48865,-2.808232 33.4507,3.51853 -0.03,5.002939 -4.29101,7.838526 -9.20479,6.125573 -1.69309,-0.590214 -6.0487,-1.063234 -9.67912,-1.051155 -7.46196,0.02483 -12.78325,2.004318 -18.21979,6.777668 -3.02474,2.65576 -4.03125,2.9899 -7.5746,2.51464 -5.45614,-0.73182 -12.97717,1.85611 -18.074646,6.21936 -2.22732,1.9065 -4.325286,3.46637 -4.662147,3.46637 -0.336861,0 -1.14271,-1.16374 -1.790775,-2.58609 z"
         id="path3736"
         inkscape:connector-curvature="0" />
      <path
         style="fill:#0275bc"
         d="m 84,115.94098 c 0,-0.58246 -0.519529,-0.73793 -1.154508,-0.34549 -0.691266,0.42723 -0.883989,0.27582 -0.48031,-0.37735 0.370809,-0.59998 1.542397,-1.02548 2.603528,-0.94554 1.457446,0.10978 1.667267,0.4611 0.857865,1.43636 C 84.525185,117.27704 84,117.34375 84,115.94098 Z m 0.09671,-3.86005 c -1.011759,-0.64056 -0.689769,-0.84554 1.15404,-0.73469 1.406534,0.0846 2.348958,0.49126 2.094276,0.90376 -0.60193,0.97493 -1.516575,0.92732 -3.248316,-0.16907 z m 6.3078,-0.92642 c 0.398903,-0.64544 0.136326,-1.16792 -0.595491,-1.18492 -0.765174,-0.0178 -0.541923,-0.47628 0.537358,-1.10362 1.338377,-0.77794 2.163776,-0.75328 3,0.0896 0.874885,0.8819 0.691151,0.98669 -0.76042,0.43369 -1.280472,-0.48782 -1.688838,-0.3648 -1.233688,0.37165 0.374196,0.60547 0.153488,1.42647 -0.490464,1.82445 -0.731227,0.45192 -0.902922,0.29014 -0.457295,-0.4309 z M 78.5,109.91171 l -3,-0.7763 3.217276,0.16818 c 2.186877,0.11431 3.688589,-0.46785 4.688882,-1.81771 1.457369,-1.96667 1.489127,-1.96706 3.282724,-0.0406 1.583464,1.70072 1.591856,1.78019 0.06676,0.63224 -1.483392,-1.11656 -2.007002,-1.0195 -3.5,0.64877 -1.381497,1.54369 -2.394984,1.79632 -4.755647,1.18547 z M 78.5,107 c -0.60158,-0.97338 0.120084,-1.39478 1.85526,-1.08333 1.302991,0.23387 3.690445,-2.0337 3.117418,-2.96088 -0.277916,-0.44968 0.02157,-1.14322 0.665519,-1.5412 0.731227,-0.45192 0.902922,-0.29014 0.457295,0.4309 -1.008441,1.63169 1.517118,1.38391 3.845638,-0.37729 1.067621,-0.80751 2.867621,-1.42334 4,-1.36852 2.027174,0.0981 2.02808,0.11053 0.05887,0.80463 -4.600356,1.62151 -9.243399,4.08158 -10.452051,5.53791 C 80.556518,108.23929 79.380215,108.42422 78.5,107 Z m 12.25,-0.66228 c 0.6875,-0.27741 1.8125,-0.27741 2.5,0 0.6875,0.27741 0.125,0.50439 -1.25,0.50439 -1.375,0 -1.9375,-0.22698 -1.25,-0.50439 z m -1.953895,-1.90746 c 1.232615,-0.86336 3.020243,-1.36556 3.972506,-1.116 1.314258,0.34442 1.203531,0.48168 -0.459594,0.56974 -1.205041,0.0638 -2.469098,0.566 -2.809017,1.116 -0.339919,0.55 -1.141604,1 -1.781523,1 -0.639919,0 -0.154987,-0.70638 1.077628,-1.56974 z m 12.467645,-0.14784 c 1.52006,-0.22986 3.77006,-0.22371 5,0.0136 1.22994,0.23736 -0.0138,0.42542 -2.76375,0.41792 -2.75,-0.008 -3.756313,-0.20172 -2.23625,-0.43157 z m 13.52519,-3.66627 c 1.62643,-1.858573 1.61751,-1.921032 -0.18038,-1.262823 -1.58361,0.579759 -1.69145,0.451477 -0.6626,-0.788214 0.96581,-1.163733 1.50975,-1.222146 2.54116,-0.272892 0.80101,0.737212 0.96515,1.63324 0.42127,2.299789 -0.49007,0.6006 -0.69137,1.29168 -0.44733,1.53571 0.24403,0.24404 -0.41735,0.44371 -1.46974,0.44371 -1.81559,0 -1.82594,-0.1 -0.20238,-1.95528 z m -13.35766,0.48689 c 1.8068,-0.70764 6.56872,-0.33535 6.56872,0.51354 0,0.21088 -1.9125,0.35179 -4.25,0.31313 -3.00669,-0.0497 -3.68502,-0.29156 -2.31872,-0.82667 z M 120,98.984687 c -1.33333,-0.875277 -1.33333,-1.094097 0,-1.969374 0.825,-0.541578 2.175,-0.939378 3,-0.883999 0.99463,0.06677 0.88566,0.259531 -0.32343,0.572152 -1.07213,0.27721 -1.60009,1.05346 -1.28138,1.883999 0.63873,1.664515 0.5666,1.685055 -1.39519,0.397222 z m 23.8125,0.332199 c 0.72187,-0.288871 1.58437,-0.253344 1.91667,0.07895 0.33229,0.332292 -0.25834,0.568641 -1.3125,0.52522 -1.16495,-0.04798 -1.4019,-0.284941 -0.60417,-0.604167 z M 100,98.073324 c 0,-0.509672 -0.7875,-1.132471 -1.75,-1.383998 -1.31691,-0.344145 -1.19317,-0.486031 0.5,-0.573325 1.2375,-0.0638 2.25,0.305488 2.25,0.820641 0,0.515152 1.4625,1.118136 3.25,1.339962 3.19982,0.397095 3.1921,0.405793 -0.5,0.563359 -2.0625,0.08802 -3.75,-0.256967 -3.75,-0.766639 z m 29.75,-0.79672 c 1.7875,-0.221826 4.7125,-0.221826 6.5,0 1.7875,0.221827 0.325,0.403322 -3.25,0.403322 -3.575,0 -5.0375,-0.181495 -3.25,-0.403322 z M 142.5,97 c -1.75921,-0.755957 -1.6618,-0.867892 0.80902,-0.929715 1.63221,-0.04084 2.5501,0.348653 2.19098,0.929715 -0.33992,0.55 -0.70398,0.968372 -0.80902,0.929715 C 144.58594,97.891058 143.6,97.472686 142.5,97 Z m -32.85536,-1.199796 c 0.45361,-0.715112 0.83163,-1.600204 0.84005,-1.966871 0.008,-0.366666 0.42496,-1.041666 0.92564,-1.5 0.52889,-0.484163 0.60891,-0.309578 0.19098,0.416667 -0.93393,1.62288 0.27843,1.533702 3.39869,-0.25 2.99559,-1.712435 4,-1.837986 4,-0.5 0,0.55 -0.56916,1 -1.26481,1 -0.69564,0 -2.98616,0.922592 -5.09004,2.050204 -2.18676,1.172033 -3.47198,1.493283 -3.00051,0.75 z M 147,95.559017 C 147,94.701558 147.45,94 148,94 c 0.55,0 1,0.423442 1,0.940983 0,0.517541 -0.45,1.219098 -1,1.559017 -0.55,0.339919 -1,-0.08352 -1,-0.940983 z M 116.5,95 c 0.33992,-0.55 1.04148,-1 1.55902,-1 0.51754,0 0.94098,0.45 0.94098,1 0,0.55 -0.70156,1 -1.55902,1 -0.85746,0 -1.2809,-0.45 -0.94098,-1 z m 8.5,0.185596 c 0,-1.012848 13.57404,-0.944893 14.59198,0.07305 C 139.99972,95.666391 136.88333,96 132.66667,96 128.45,96 125,95.633518 125,95.185596 Z M 150.15789,94 c 0,-1.375 0.22698,-1.9375 0.50439,-1.25 0.27741,0.6875 0.27741,1.8125 0,2.5 -0.27741,0.6875 -0.50439,0.125 -0.50439,-1.25 z M 120.75,93.337719 c 0.6875,-0.277412 1.8125,-0.277412 2.5,0 0.6875,0.277413 0.125,0.504386 -1.25,0.504386 -1.375,0 -1.9375,-0.226973 -1.25,-0.504386 z m 21.51903,-0.03071 c 0.97297,-0.253543 2.32297,-0.236869 3,0.03705 0.67703,0.273923 -0.11903,0.481368 -1.76903,0.460988 -1.65,-0.02038 -2.20394,-0.244498 -1.23097,-0.498042 z M 126,91.822487 c 0,-1.159476 11.18403,-0.998163 13,0.187505 1.04165,0.680102 -0.71538,0.92675 -5.75,0.807174 C 129.2625,92.722461 126,92.274855 126,91.822487 Z M 147,92 c 0,-0.55 0.45,-1 1,-1 0.55,0 1,0.45 1,1 0,0.55 -0.45,1 -1,1 -0.55,0 -1,-0.45 -1,-1 z m -22.5,-2.531662 c 5.25889,-1.588265 12.55323,-1.437163 18.5,0.383229 3.35111,1.025823 3.2873,1.051779 -1.5,0.610174 -8.02324,-0.740105 -13.71413,-0.773698 -18,-0.106252 -3.61325,0.562697 -3.51656,0.476921 1,-0.887151 z m -1.6875,-2.151452 c 0.72187,-0.288871 1.58437,-0.253344 1.91667,0.07895 0.33229,0.332292 -0.25834,0.568641 -1.3125,0.52522 -1.16495,-0.04798 -1.4019,-0.284941 -0.60417,-0.604167 z m 8.45653,-1.009877 c 0.97297,-0.253543 2.32297,-0.236869 3,0.03705 0.67703,0.273923 -0.11903,0.481368 -1.76903,0.460988 -1.65,-0.02038 -2.20394,-0.244498 -1.23097,-0.498042 z"
         id="path3734"
         inkscape:connector-curvature="0" />
    </g>
  </g>
  <g
     inkscape:groupmode="layer"
     id="layer2"
     inkscape:label="BADGE"
     style="display:none"
     sodipodi:insensitive="true">
    <g
       style="display:inline"
       transform="translate(-340.00001,-581)"
       id="g4394"
       clip-path="none">
      <g
         id="g855">
        <g
           inkscape:groupmode="maskhelper"
           id="g870"
           clip-path="url(#clipPath873)"
           style="opacity:0.6;filter:url(#filter891)">
          <path
             transform="matrix(1.4999992,0,0,1.4999992,-29.999795,-237.54282)"
             d="m 264,552.36218 a 12,12 0 0 1 -12,12 12,12 0 0 1 -12,-12 12,12 0 0 1 12,-12 12,12 0 0 1 12,12 z"
             sodipodi:ry="12"
             sodipodi:rx="12"
             sodipodi:cy="552.36218"
             sodipodi:cx="252"
             id="path844"
             style="color:#000000;fill:#000000;fill-opacity:1;fill-rule:nonzero;stroke:none;stroke-width:4;marker:none;visibility:visible;display:inline;overflow:visible;enable-background:accumulate"
             sodipodi:type="arc" />
        </g>
        <g
           id="g862">
          <path
             sodipodi:type="arc"
             style="color:#000000;fill:#f5f5f5;fill-opacity:1;fill-rule:nonzero;stroke:none;stroke-width:4;marker:none;visibility:visible;display:inline;overflow:visible;enable-background:accumulate"
             id="path4398"
             sodipodi:cx="252"
             sodipodi:cy="552.36218"
             sodipodi:rx="12"
             sodipodi:ry="12"
             d="m 264,552.36218 a 12,12 0 0 1 -12,12 12,12 0 0 1 -12,-12 12,12 0 0 1 12,-12 12,12 0 0 1 12,12 z"
             transform="matrix(1.4999992,0,0,1.4999992,-29.999795,-238.54282)" />
          <path
             transform="matrix(1.25,0,0,1.25,33,-100.45273)"
             d="m 264,552.36218 a 12,12 0 0 1 -12,12 12,12 0 0 1 -12,-12 12,12 0 0 1 12,-12 12,12 0 0 1 12,12 z"
             sodipodi:ry="12"
             sodipodi:rx="12"
             sodipodi:cy="552.36218"
             sodipodi:cx="252"
             id="path4400"
             style="color:#000000;fill:#dd4814;fill-opacity:1;fill-rule:nonzero;stroke:none;stroke-width:4;marker:none;visibility:visible;display:inline;overflow:visible;enable-background:accumulate"
             sodipodi:type="arc" />
          <path
             sodipodi:type="star"
             style="color:#000000;fill:#f5f5f5;fill-opacity:1;fill-rule:nonzero;stroke:none;stroke-width:3;marker:none;visibility:visible;display:inline;overflow:visible;enable-background:accumulate"
             id="path4459"
             sodipodi:sides="5"
             sodipodi:cx="666.19574"
             sodipodi:cy="589.50385"
             sodipodi:r1="7.2431178"
             sodipodi:r2="4.3458705"
             sodipodi:arg1="1.0471976"
             sodipodi:arg2="1.6755161"
             inkscape:flatsided="false"
             inkscape:rounded="0.1"
             inkscape:randomized="0"
             d="m 669.8173,595.77657 c -0.39132,0.22593 -3.62645,-1.90343 -4.07583,-1.95066 -0.44938,-0.0472 -4.05653,1.36297 -4.39232,1.06062 -0.3358,-0.30235 0.68963,-4.03715 0.59569,-4.47913 -0.0939,-0.44198 -2.5498,-3.43681 -2.36602,-3.8496 0.18379,-0.41279 4.05267,-0.59166 4.44398,-0.81759 0.39132,-0.22593 2.48067,-3.48704 2.93005,-3.4398 0.44938,0.0472 1.81505,3.67147 2.15084,3.97382 0.3358,0.30236 4.08294,1.2817 4.17689,1.72369 0.0939,0.44198 -2.9309,2.86076 -3.11469,3.27355 -0.18379,0.41279 0.0427,4.27917 -0.34859,4.5051 z"
             transform="matrix(1.511423,-0.16366377,0.16366377,1.511423,-755.37346,-191.93651)" />
        </g>
      </g>
    </g>
  </g>
</svg>
